<svg width="17" height="24" viewBox="0 0 17 24" fill="none" xmlns="http://www.w3.org/2000/svg">
<path d="M1.39629 6.62432C1.31173 5.42623 1.57747 4.24606 2.28108 3.29684C2.89108 2.43632 3.68529 1.96636 4.64258 1.69172C5.44887 1.4525 5.97733 1.74561 6.20986 2.64204C6.54205 3.98224 7.01616 5.3225 7.18829 6.73361C7.24265 7.35485 6.84102 8.23322 6.40617 8.6856C5.31602 9.75888 5.54251 10.5399 6.36994 12.1643C6.62663 12.6881 7.0343 13.5934 7.82852 14.7919C8.65595 15.9992 9.09383 16.6472 10.1568 16.0975C11.3375 15.5035 12.1982 15.8855 13.089 16.8444C13.693 17.5369 14.3574 18.1318 14.9613 18.8243C15.8341 19.8542 15.7948 20.5641 15.1123 21.2915C13.8833 22.6309 11.854 23.0736 10.344 22.1766C9.51058 21.6881 8.68012 21.0487 8.01878 20.303C5.10465 16.9825 3.00285 13.1212 1.73753 8.76321C1.5352 8.02654 1.44159 7.28104 1.39629 6.62432Z" stroke="#FE7865" stroke-width="2" stroke-miterlimit="10"/>
</svg>
